<svg version="1.1" id="logo_W" xmlns="http://www.w3.org/2000/svg"
    xmlns:xlink="http://www.w3.org/1999/xlink" x="0px" y="0px" viewBox="0 30 130 145.2"
    xml:space="preserve" fill="#A7A7A7">

                <g id="logo_x5F_white">
                    <g>
                        <polygon class="st0" points="35.3,34.5 0,175.2 19,175.2 45.8,58.5 60.4,122.2 38.1,122.2 33.8,140.7 80.6,140.7 56.3,34.5 		"></polygon>
                        <path class="st0" d="M78.8,34.5H63.2L67.4,53H75c8.9,0,15.7,2.5,20.5,7.6c4.8,5.1,7.2,12.9,7.2,23.6v4.6c0,18-6.4,29.7-19.4,33
                            l4.3,18.8c22.7-4.1,33.8-21.7,33.8-51.1v-7.1c0-16.4-3.7-28.5-11-36.3C103,38.4,92.5,34.5,78.8,34.5z"></path>
                    </g>
                </g>
            </svg>