<svg version="1.1" id="logo_W" xmlns="http://www.w3.org/2000/svg"
    xmlns:xlink="http://www.w3.org/1999/xlink" x="0px" y="0px" viewBox="0 0 420.9 175.2"
    xml:space="preserve" fill="#640FAF">

                <g id="logo_x5F_white">
                    <g>
                        <polygon class="st0" points="35.3,34.5 0,175.2 19,175.2 45.8,58.5 60.4,122.2 38.1,122.2 33.8,140.7 80.6,140.7 56.3,34.5 		"></polygon>
                        <path class="st0" d="M78.8,34.5H63.2L67.4,53H75c8.9,0,15.7,2.5,20.5,7.6c4.8,5.1,7.2,12.9,7.2,23.6v4.6c0,18-6.4,29.7-19.4,33
                            l4.3,18.8c22.7-4.1,33.8-21.7,33.8-51.1v-7.1c0-16.4-3.7-28.5-11-36.3C103,38.4,92.5,34.5,78.8,34.5z"></path>
                    </g>
                    <g>
                        <polygon class="st0" points="335.7,34.1 335.7,141.1 392,141.1 392,129.8 348.6,129.8 348.6,45.4 392,45.4 392,34.1 		"></polygon>
                        <rect x="408" y="34.1" class="st0" width="12.9" height="107"></rect>
                    </g>
                    <g>
                        <polygon class="st0" points="311.6,34.1 311.6,76 303.3,76 303.3,34.1 290.4,34.1 290.4,141.1 303.3,141.1 303.3,87.4 311.6,87.4 
                            311.6,141.1 324.5,141.1 324.5,34.1 		"></polygon>
                        <polygon class="st0" points="249.3,129.8 249.3,93.3 279.7,93.3 279.7,34.1 236.4,34.1 236.4,45.4 266.8,45.4 266.8,81.9 
                            236.4,81.9 236.4,141.1 285.3,141.1 285.3,129.8 		"></polygon>
                    </g>
                    <g>
                        <rect x="134.5" y="78" class="st0" width="96.1" height="11.4"></rect>
                        <path class="st0" d="M224.4,71.2V59.9h-15.2V45.4h15.2V34.1h-83.7v11.4h15.2v14.5h-15.2v11.4H224.4z M196.4,45.4v14.5h-27.6V45.4
                            H196.4z"></path>
                        <polygon class="st0" points="140.7,95.9 140.7,106.3 211.6,106.3 211.6,113.3 140.7,113.3 140.7,141.1 224.5,141.1 224.5,130.6 
                            153.6,130.6 153.6,123.7 224.5,123.7 224.5,95.9 		"></polygon>
                    </g>
                </g>
            </svg>